<?xml version="1.0" encoding="UTF-8"?>
<svg width="257px" height="259px" viewBox="0 0 257 259" version="1.1" xmlns="http://www.w3.org/2000/svg" xmlns:xlink="http://www.w3.org/1999/xlink">
    <!-- Generator: Sketch 52.6 (67491) - http://www.bohemiancoding.com/sketch -->
    <title>Vertical-Dark</title>
    <desc>Created with Sketch.</desc>
    <g id="Page-1" stroke="none" stroke-width="1" fill="none" fill-rule="evenodd">
        <g id="Brand---Logo-Light" transform="translate(-876.000000, -201.000000)" fill="#222325">
            <g id="Vertical-Dark" transform="translate(876.522046, 201.000000)">
                <g id="Group" transform="translate(0.000000, 193.273886)" fill-rule="nonzero">
                    <path d="M23.4737151,0.309373145 L5.53565844,0.309373145 C2.58961571,0.309373145 0.198715944,2.70543658 0.198715944,5.65079519 L0.198715944,59.6079971 C0.198715944,62.6449049 2.58961571,65.0378115 5.53565844,65.0378115 C8.47854694,65.0378115 10.8694467,62.6449049 10.8694467,59.6079971 L10.8694467,47.1762477 L23.4737151,47.1762477 C36.3524008,47.1762477 46.8401868,36.6796588 46.8401868,23.6986143 C46.8401868,10.805962 36.3524008,0.309373145 23.4737151,0.309373145 Z M23.4737151,36.4050113 L10.8694467,36.4050113 L10.8694467,11.0837664 L23.4737151,11.0837664 C30.4666238,11.0837664 36.169456,16.6998361 36.169456,23.6986143 C36.169456,30.7857848 30.4666238,36.4050113 23.4737151,36.4050113 Z" id="Shape"></path>
                    <path d="M79.3160496,65.0378115 C76.3731611,65.0378115 73.9822613,62.6449049 73.9822613,59.6995463 L73.9822613,5.74234439 C73.9822613,2.79698578 76.3731611,0.40092234 79.3160496,0.40092234 C82.2620923,0.40092234 84.7444645,2.79698578 84.7444645,5.74234439 L84.7444645,59.6995463 C84.7444645,62.6449049 82.2620923,65.0378115 79.3160496,65.0378115 Z" id="Shape"></path>
                    <path d="M144.176303,65.0378115 C126.326564,65.0378115 111.883385,50.5825091 111.883385,32.7209453 C111.883385,14.9509307 126.326564,0.40092234 144.176303,0.40092234 C161.931415,0.40092234 176.466067,14.9509307 176.466067,32.7209453 C176.466067,50.5825091 161.931415,65.0378115 144.176303,65.0378115 Z M144.176303,11.0837664 C132.215496,11.0837664 122.55727,20.841648 122.55727,32.7209453 C122.55727,44.6917919 132.215496,54.3581243 144.176303,54.3581243 C156.042483,54.3581243 165.795336,44.6917919 165.795336,32.7209453 C165.795336,20.841648 156.042483,11.0837664 144.176303,11.0837664 Z" id="Shape"></path>
                    <path d="M250.984546,65.0378115 C249.328579,65.0378115 247.764086,64.302261 246.754735,62.9227094 L213.818356,21.1194524 L213.818356,59.6995463 C213.818356,62.6449049 211.427456,65.0378115 208.481413,65.0378115 C205.538525,65.0378115 203.147625,62.6449049 203.147625,59.6995463 L203.147625,5.74234439 C203.147625,3.44098702 204.617492,1.41427723 206.733974,0.678726797 C208.941929,-0.151529703 211.332829,0.587177601 212.714378,2.42763212 L245.650757,44.2308891 L245.650757,5.74234439 C245.650757,2.70543658 248.041657,0.309373145 250.984546,0.309373145 C253.930588,0.309373145 256.321488,2.70543658 256.321488,5.74234439 L256.321488,59.6995463 C256.321488,61.9093545 254.848467,63.9329074 252.731984,64.6716147 C252.179995,64.9462623 251.536534,65.0378115 250.984546,65.0378115 Z" id="Shape"></path>
                </g>
                <path d="M122.127075,138.400499 C122.121961,138.296277 122.11938,138.191465 122.11938,138.086138 C122.11938,134.772429 124.674274,132.202715 128.264125,132.202715 C131.853976,132.202715 134.891749,134.772429 134.891749,138.086138 C134.891749,138.191465 134.88868,138.296277 134.882622,138.400499 L134.888319,138.400499 L134.888319,144.283435 C141.356068,143.663134 147.731008,142.102697 153.731839,139.602124 C174.624534,130.893259 190.431965,110.914099 193.701586,88.0551583 C196.149235,70.959437 191.615604,52.9855109 181.273373,39.1318293 C174.347818,29.8581006 164.950713,22.5306818 154.307455,17.9482405 C154.257945,17.9324419 154.20924,17.9141679 154.161403,17.893358 C152.028224,16.9653958 146.487513,14.7064619 145.861311,10.9401316 C145.235108,7.17380133 147.752625,4.06700304 151.769496,4.06700304 C152.5323,4.06700304 153.307717,4.17904064 154.063448,4.38635649 L154.063448,4.38005248 C154.094355,4.39078011 154.125255,4.40152674 154.15615,4.41229237 C154.561264,4.52784629 154.960315,4.67070214 155.348294,4.83826117 C165.272173,8.47247622 174.522573,14.0770812 182.270699,21.388432 C200.365037,38.4658573 209.666104,64.2448291 206.232089,89.3541696 C203.218192,111.411748 190.336981,131.862944 171.756766,144.198063 C159.491394,152.341965 144.902972,156.817807 130.188979,157.188025 C130.15564,157.169202 130.123183,157.159348 130.090936,157.159911 C129.612434,157.168266 128.512512,157.236611 127.982746,157.196721 C127.45298,157.15683 126.216135,157.096277 125.714961,156.868221 C125.172231,156.621255 124.392777,156.289369 123.887155,155.822401 C123.740654,155.6871 122.996465,154.685746 122.992784,154.474842 C122.629865,153.761874 122.463978,153.22137 122.321246,152.207058 C122.209576,151.413492 122.145349,150.537253 122.109672,149.670068 L122.109672,149.543077 L122.108907,138.400499 L122.127075,138.400499 Z M134.88832,90.1250841 C134.8906,90.1889599 134.891749,90.2531307 134.891749,90.3175829 C134.891749,93.6312914 131.853976,96.43416 128.264125,96.43416 C124.704255,96.43416 122.162127,93.6779129 122.119914,90.4004991 L122.108907,90.4004991 L122.108907,12.9287434 C104.032172,14.7785555 86.7251388,24.3015983 75.6518276,39.1318293 C63.3514768,55.5981704 59.3366014,77.9155513 65.3972732,97.8508016 C69.0297692,109.801083 76.228173,120.574537 85.6702302,128.724378 L85.4875019,79.2213633 L85.5047322,79.2213633 C85.3563639,73.609885 86.2794023,67.970696 88.2938091,62.7181484 C90.6222439,56.6481991 94.3722866,51.1453725 99.1029181,46.6894404 C100.881691,44.8633276 103.440932,42.8391984 105.825714,43.0683408 C109.623633,43.4332649 111.965846,46.6850038 110.919095,50.591531 C110.37402,52.6257767 108.617587,54.7497902 107.031824,56.1535703 C106.821009,56.3607739 106.613272,56.5700805 106.409593,56.7834511 C101.137763,62.2992286 97.9622732,69.8009962 97.8047895,77.4113726 C97.6860313,83.1521254 99.1730902,88.9342531 102.121391,93.8397523 C105.676391,99.7615199 111.252861,104.452387 117.704528,106.898672 C127.522731,110.62499 139.207502,108.786397 147.448286,102.262109 C151.70809,98.8900633 155.103025,94.3957261 157.078025,89.3221418 C159.747502,82.4642695 159.879169,74.6315035 157.385247,67.7038112 C155.79492,63.2844659 153.122861,59.3098996 149.722763,56.0749078 L149.722763,56.0638879 C147.904253,54.5462255 144.148252,50.9232592 144.520455,47.6866935 C144.956651,43.8936596 148.232994,41.6011351 152.094258,42.7083348 C153.430431,43.0914764 154.704317,43.8437814 155.756002,44.8138987 C157.280889,46.0589683 158.719318,47.4108181 160.054724,48.8627637 C165.406587,54.6836803 169.175868,61.9656443 170.709397,69.7596214 C172.645672,79.6171664 171.039855,90.1341222 166.160443,98.9314381 C165.973798,99.2679312 165.782579,99.6017735 165.586883,99.932879 L165.666869,99.932879 C160.040929,109.534585 150.655838,116.852959 139.889834,119.809582 C129.576829,122.638134 118.251884,121.500127 108.706052,116.512655 C104.403353,114.263618 100.494497,111.274097 97.1697707,107.736256 L97.130966,107.736256 L97.0904074,141.452141 C97.0167223,142.672878 96.8810168,143.700642 96.8029431,143.893419 C96.2724255,145.203356 95.4650525,145.795763 94.646449,146.185655 C94.5539801,146.375245 93.1251032,146.699163 92.9351453,146.759874 C92.2795409,146.969409 91.3992016,146.765413 90.8029431,146.759874 C90.2523398,146.75476 88.76509,146.229967 88.2840166,145.977525 C87.85078,145.750186 86.3380095,144.775357 85.7272788,144.430508 C73.7620406,136.58377 63.8399262,125.528888 57.6086341,112.48389 C47.2664027,90.8288219 47.4965548,64.2887393 58.6680644,42.6153753 C71.4944771,17.7329043 98.1227091,0.553021763 126.942866,0.00414372685 C126.976113,0.00352703607 127.009348,0.00293344134 127.042573,0.00236229392 C127.068914,0.0150962858 127.094873,0.0218370226 127.120814,0.0218370226 C127.599391,0.0218370226 128.700343,-0.0272962782 129.229335,0.0218370226 C129.758326,0.0709703233 130.993932,0.153107224 131.491053,0.389879015 C132.029395,0.646283563 132.802943,0.991728259 133.300343,1.4674547 C133.444461,1.60529397 134.17107,2.61949327 134.17107,2.83043077 C134.521496,3.54962952 134.677929,4.09295066 134.802943,5.10960558 C134.837193,5.38813933 134.86545,5.67670792 134.888593,5.97138722 L134.888593,12.9100959 L134.88832,90.1250841 Z" id="Combined-Shape"></path>
            </g>
        </g>
    </g>
</svg>