<?xml version="1.0" encoding="UTF-8"?>
<svg width="158px" height="158px" viewBox="0 0 158 158" version="1.1" xmlns="http://www.w3.org/2000/svg" xmlns:xlink="http://www.w3.org/1999/xlink">
    <!-- Generator: Sketch 52.6 (67491) - http://www.bohemiancoding.com/sketch -->
    <title>Mark-Dark</title>
    <desc>Created with Sketch.</desc>
    <g id="Page-1" stroke="none" stroke-width="1" fill="none" fill-rule="evenodd">
        <g id="Brand---&quot;The-Block&quot;-Light" transform="translate(-88.000000, -183.000000)" fill="#222325">
            <g id="Mark-Dark" transform="translate(88.000000, 183.000000)">
                <path d="M72.4850587,138.675749 C72.479945,138.571527 72.4773638,138.466715 72.4773638,138.361387 C72.4773638,135.047679 75.0322578,132.477964 78.6221086,132.477964 C82.2119595,132.477964 85.2497331,135.047679 85.2497331,138.361387 C85.2497331,138.466715 85.246664,138.571527 85.2406056,138.675749 L85.2463028,138.675749 L85.2463028,144.558684 C91.7140522,143.938383 98.0889917,142.377946 104.089823,139.877374 C124.982518,131.168509 140.789949,111.189348 144.05957,88.3304077 C146.507219,71.2346865 141.973588,53.2607604 131.631357,39.4070788 C124.705801,30.13335 115.308697,22.8059312 104.665439,18.22349 C104.615929,18.2076913 104.567224,18.1894174 104.519386,18.1686075 C102.386208,17.2406452 96.8454973,14.9817113 96.2192945,11.2153811 C95.5930917,7.44905079 98.1106087,4.34225249 102.12748,4.34225249 C102.890284,4.34225249 103.665701,4.4542901 104.421432,4.66160595 L104.421432,4.65530193 C104.452339,4.66602956 104.483239,4.6767762 104.514134,4.68754183 C104.919248,4.80309575 105.318299,4.94595159 105.706278,5.11351062 C115.630157,8.74772567 124.880557,14.3523307 132.628682,21.6636815 C150.723021,38.7411068 160.024088,64.5200785 156.590073,89.6294191 C153.576176,111.686998 140.694965,132.138193 122.11475,144.473312 C109.849378,152.617215 95.2609555,157.093057 80.5469633,157.463275 C80.513624,157.444452 80.4811666,157.434597 80.4489199,157.43516 C79.9704183,157.443515 78.8704961,157.511861 78.3407302,157.47197 C77.8109643,157.432079 76.5741191,157.371526 76.0729451,157.14347 C75.5302145,156.896504 74.7507607,156.564619 74.2451393,156.097651 C74.0986381,155.962349 73.3544486,154.960995 73.3507684,154.750091 C72.987849,154.037124 72.821962,153.496619 72.6792295,152.482308 C72.5675599,151.688742 72.5033325,150.812503 72.4676556,149.945317 L72.4676556,149.818327 L72.466891,138.675749 L72.4850587,138.675749 Z M85.2463038,90.4003336 C85.2485839,90.4642094 85.2497331,90.5283801 85.2497331,90.5928323 C85.2497331,93.9065408 82.2119595,96.7094095 78.6221086,96.7094095 C75.0622388,96.7094095 72.5201109,93.9531623 72.4778975,90.6757486 L72.466891,90.6757486 L72.466891,13.2039928 C54.390156,15.0538049 37.0831227,24.5768477 26.0098115,39.4070788 C13.7094607,55.8734199 9.69458527,78.1908008 15.7552571,98.1260511 C19.3877531,110.076333 26.5861569,120.849786 36.0282141,128.999627 L35.8454858,79.4966127 L35.862716,79.4966127 C35.7143477,73.8851344 36.6373861,68.2459454 38.651793,62.9933978 C40.9802277,56.9234486 44.7302705,51.420622 49.460902,46.9646899 C51.2396752,45.1385771 53.7989159,43.1144478 56.1836976,43.3435902 C59.9816165,43.7085143 62.3238295,46.9602533 61.2770787,50.8667805 C60.7320042,52.9010262 58.9755707,55.0250396 57.3898077,56.4288198 C57.1789927,56.6360233 56.9712563,56.8453299 56.7675773,57.0587006 C51.4957472,62.574478 48.3202571,70.0762456 48.1627734,77.686622 C48.0440152,83.4273749 49.531074,89.2095026 52.4793747,94.1150017 C56.0343747,100.036769 61.6108453,104.727637 68.062512,107.173922 C77.8807146,110.900239 89.5654858,109.061647 97.8062701,102.537359 C102.066074,99.1653127 105.461009,94.6709756 107.436009,89.5973913 C110.105486,82.7395189 110.237152,74.906753 107.743231,67.9790607 C106.152904,63.5597153 103.480845,59.585149 100.080747,56.3501572 L100.080747,56.3391373 C98.2622365,54.821475 94.5062355,51.1985086 94.8784385,47.9619429 C95.3146351,44.168909 98.5909774,41.8763846 102.452242,42.9835843 C103.78841,43.3667244 105.062291,44.1190251 106.113974,45.0891369 C107.638864,46.3342102 109.077298,47.6860635 110.412708,49.1380132 C115.764571,54.9589297 119.533852,62.2408937 121.067381,70.0348708 C123.003656,79.8924158 121.397839,90.4093716 116.518427,99.2066875 C116.331782,99.5431807 116.140563,99.877023 115.944866,100.208128 L116.024853,100.208128 C110.398913,109.809835 101.013822,117.128209 90.2478182,120.084832 C79.9348125,122.913383 68.6098682,121.775376 59.0640361,116.787904 C54.7613368,114.538868 50.8524812,111.549346 47.5277546,108.011505 L47.4889499,108.011505 L47.4483913,141.727391 C47.3747062,142.948127 47.2390007,143.975892 47.160927,144.168669 C46.6304094,145.478605 45.8230364,146.071012 45.0044328,146.460905 C44.9119639,146.650494 43.4830871,146.974412 43.2931291,147.035124 C42.6375247,147.244658 41.7571855,147.040662 41.160927,147.035124 C40.6103237,147.030009 39.1230739,146.505216 38.6420004,146.252775 C38.2087639,146.025436 36.6959934,145.050606 36.0852627,144.705758 C24.1200245,136.85902 14.1979101,125.804137 7.96661796,112.75914 C-2.37561345,91.1040714 -2.14546135,64.5639888 9.02604823,42.8906247 C21.852461,18.0081537 48.4806929,0.828271216 77.3008496,0.27939318 C77.3340965,0.27877649 77.3673319,0.278182895 77.400557,0.277611747 C77.4268976,0.290345739 77.4528572,0.297086476 77.4787981,0.297086476 C77.9573747,0.297086476 79.0583269,0.247953175 79.5873186,0.297086476 C80.1163103,0.346219777 81.3519163,0.428356677 81.8490373,0.665128468 C82.3873789,0.921533016 83.160927,1.26697771 83.6583264,1.74270415 C83.8024453,1.88054342 84.529054,2.89474273 84.529054,3.10568023 C84.8794803,3.82487897 85.0359125,4.36820011 85.160927,5.38485503 C85.1951773,5.66338879 85.2234339,5.95195737 85.2465767,6.24663667 L85.2465767,13.1853454 L85.2463038,90.4003336 Z" id="Mark"></path>
            </g>
        </g>
    </g>
</svg>